<svg xmlns="http://www.w3.org/2000/svg" width="32" height="32" id="manage-profile" fill="#fff">
  <path d="M14 2c-3.302 0-6 2.698-6 6s2.698 6 6 6 6-2.698 6-6-2.698-6-6-6zm0 2c2.221 0 4 1.78 4 4 0 2.221-1.779 4-4 4s-4-1.779-4-4c0-2.22 1.779-4 4-4zm-3 12c-4.969 0-9 4.031-9 9v2a1 1 0 0 0 1 1h10.848a1 1 0 1 0 0-2H4v-1c0-3.895 3.105-7 7-7h4.016a1 1 0 1 0 0-2zm11.987 0a1.001 1.001 0 0 0-.99 1.014V18.1a4.977 4.977 0 0 0-1.754.737l-.768-.768c-.236-.242-.503-.334-.756-.32-.757.04-1.385 1.027-.658 1.734l.771.772a4.975 4.975 0 0 0-.732 1.753h-1.086c-1.352-.019-1.352 2.02 0 2h1.09c.13.631.385 1.218.73 1.739l-.777.777c-.97.943.472 2.384 1.414 1.414l.776-.775a4.977 4.977 0 0 0 1.75.734v1.088c-.02 1.352 2.019 1.352 2 0V27.9a4.974 4.974 0 0 0 1.748-.732l.78.78a1 1 0 1 0 1.414-1.413l-.777-.778a4.976 4.976 0 0 0 .734-1.747h1.09a.999.999 0 1 0 0-2H27.9a4.976 4.976 0 0 0-.736-1.764l.771-.771a.996.996 0 0 0 0-1.432 1.004 1.004 0 0 0-.71-.285 1 1 0 0 0-.7.303l-.773.773A4.974 4.974 0 0 0 24 18.1v-1.086A.998.998 0 0 0 22.99 16zM23 20c1.668 0 3 1.331 3 3 0 1.668-1.332 3-3 3-1.669 0-3-1.332-3-3 0-1.669 1.331-3 3-3z" color="#fff" font-family="sans-serif" font-weight="400" overflow="visible" style="line-height:normal;font-variant-ligatures:normal;font-variant-position:normal;font-variant-caps:normal;font-variant-numeric:normal;font-variant-alternates:normal;font-feature-settings:normal;text-indent:0;text-align:start;text-decoration-line:none;text-decoration-style:solid;text-decoration-color:#000;text-transform:none;text-orientation:mixed;shape-padding:0;isolation:auto;mix-blend-mode:normal"></path>
</svg>
